<svg xmlns="http://www.w3.org/2000/svg" xmlns:svg="http://www.w3.org/2000/svg" xmlns:xlink="http://www.w3.org/1999/xlink" version="1.0" height="1100pt" width="1490pt" viewBox="175 -13 1498 1106" ><defs><style type="text/css">
            @font-face {
                font-family: 'lt_regular';
                src: url('https://app.creately.com/diagram/assets/fonts/lato/lt-regular-webfont.woff2') format('woff2'),
                    url('https://app.creately.com/diagram/assets/fonts/lato/lt-regular-webfont.woff') format('woff');
                font-weight: normal;
                font-style: normal;
            }
            @font-face {
                font-family: 'noto_regular';
                src: url('https://app.creately.com/diagram/assets/fonts/noto/noto-regular.woff') format('woff'),
                     url('https://app.creately.com/diagram/assets/fonts/noto/noto-regular.woff2') format('woff2');
                font-weight: normal;
                font-style: normal;
            }
        p {
            margin: 0;
        }
        </style></defs><defs><style>
            span{ display: inline-block; }
        </style></defs><g id="yCteaGoRGLo"><g transform="translate(400 100)"><rect x="0" y="0" width="100" height="50" fill="rgb(241,191,49)" stroke="#f1bf31" stroke-width="2" stroke-linecap="round" stroke-linejoin="round" stroke-dasharray="0 0"/></g><g transform="translate(422.5, 115.5) rotate(0, 27.5, 9.5)" width="55" height="19"><text text-decoration="none" x="0" fill="#ffffff" font-size="10pt" font-family="lt_regular"  y="15">CASHIER</text><text text-decoration="none" x="55" fill="#4b4b4b" font-size="10pt" font-family="noto_regular"  y="15"></text></g></g><g id="Nzy5LEeyR4C"><g transform="translate(330 10)"><ellipse cx="50" cy="25" rx="50" ry="25" fill="rgb(56,128,189)" stroke="#3880bd" stroke-width="2" stroke-linecap="round" stroke-linejoin="round" stroke-dasharray="0 0"/></g><g transform="translate(359.5, 25.5) rotate(0, 20.5, 9.5)" width="41" height="19"><text text-decoration="underline" x="0.5" fill="#ffffff" font-size="10pt" font-family="lt_regular"  y="15">ID&#160;</text><text text-decoration="underline" x="17.5" fill="#ffffff" font-size="10pt" font-family="lt_regular"  y="15">NO.</text><text text-decoration="none" x="40.5" fill="#4b4b4b" font-size="10pt" font-family="noto_regular"  y="15"></text></g></g><g id="EFAwgQc1r5f"><g transform="translate(450 10)"><ellipse cx="50" cy="25" rx="50" ry="25" fill="rgb(56,128,189)" stroke="#3880bd" stroke-width="2" stroke-linecap="round" stroke-linejoin="round" stroke-dasharray="0 0"/></g><g transform="translate(480.5, 25.5) rotate(0, 19.5, 9.5)" width="39" height="19"><text text-decoration="none" x="0" fill="#ffffff" font-size="10pt" font-family="lt_regular"  y="15">NAME</text><text text-decoration="none" x="39" fill="#4b4b4b" font-size="10pt" font-family="noto_regular"  y="15"></text></g></g><g id="2BBRRdig5pt"><g><path d="M 420,50 L 450,100" fill="none" stroke="#A8A8A8" stroke-width="2" stroke-linecap="round" stroke-linejoin="round"/></g></g><g id="QaNpJkhR43f"><g><path d="M 460,50 L 450,100" fill="none" stroke="#A8A8A8" stroke-width="2" stroke-linecap="round" stroke-linejoin="round"/></g></g><g id="eu4fvgDiJGL"><g transform="translate(700 90)"><path d="M 120,35 L 60,70 L 0,35 L 60,0 L 120,35 L 120,35 Z" fill="rgb(52,64,87)" stroke="#344057" stroke-width="2" stroke-linecap="round" stroke-linejoin="round" stroke-dasharray="0 0"/></g><g transform="translate(747, 115.5) rotate(0, 13, 9.5)" width="26" height="19"><text text-decoration="none" x="0" fill="#ffffff" font-size="10pt" font-family="lt_regular"  y="15">HAS</text><text text-decoration="none" x="26" fill="#4b4b4b" font-size="10pt" font-family="noto_regular"  y="15"></text></g></g><g id="wmDnbMcBf5c"><g><path d="M 700,125 L 500,125" fill="none" stroke="#A8A8A8" stroke-width="2" stroke-linecap="round" stroke-linejoin="round"/><path d="M 500,130.75 L 510,125 L 500,119.25 M 510,130.75 L 510,119.25 Z" fill="none" stroke="#A8A8A8" stroke-width="2" stroke-linecap="round" stroke-linejoin="round"/></g></g><g id="xmVeJdXTEf7"><g transform="translate(1020 100)"><rect x="0" y="0" width="100" height="50" fill="rgb(241,191,49)" stroke="#f1bf31" stroke-width="2" stroke-linecap="round" stroke-linejoin="round" stroke-dasharray="0 0"/></g><g transform="translate(1028, 115.5) rotate(0, 42, 9.5)" width="84" height="19"><text text-decoration="none" x="0" fill="#FFFFFF" font-size="10pt" font-family="lt_regular"  y="15">RESTAURANT</text><text text-decoration="none" x="85" fill="#4b4b4b" font-size="10pt" font-family="noto_regular"  y="15"></text></g></g><g id="NLulwRNG0mR"><g transform="translate(940 0)"><ellipse cx="50" cy="25" rx="50" ry="25" fill="rgb(56,128,189)" stroke="#3880bd" stroke-width="2" stroke-linecap="round" stroke-linejoin="round" stroke-dasharray="0 0"/></g><g transform="translate(970.5, 15.5) rotate(0, 19.5, 9.5)" width="39" height="19"><text text-decoration="underline" x="0" fill="#ffffff" font-size="10pt" font-family="lt_regular"  y="15">NAME</text><text text-decoration="none" x="39" fill="#4b4b4b" font-size="10pt" font-family="noto_regular"  y="15"></text></g></g><g id="lRDTxipP9tI"><g transform="translate(1070 -10)"><ellipse cx="50" cy="25" rx="50" ry="25" fill="rgb(56,128,189)" stroke="#3880bd" stroke-width="2" stroke-linecap="round" stroke-linejoin="round" stroke-dasharray="0 0"/></g><g transform="translate(1089, -3.5) rotate(0, 31, 18.5)" width="62" height="37"><text text-decoration="none" x="0" fill="#ffffff" font-size="10pt" font-family="lt_regular"  y="14">CONTACT&#160;</text><text text-decoration="none" x="19.5" fill="#ffffff" font-size="10pt" font-family="lt_regular"  y="33">NO.</text><text text-decoration="none" x="42.5" fill="#4b4b4b" font-size="10pt" font-family="noto_regular"  y="33"></text></g></g><g id="4sLIWsnQQD1"><g transform="translate(1190 20)"><ellipse cx="50" cy="25" rx="50" ry="25" fill="rgb(56,128,189)" stroke="#3880bd" stroke-width="2" stroke-linecap="round" stroke-linejoin="round" stroke-dasharray="0 0"/></g><g transform="translate(1210, 35.5) rotate(0, 30, 9.5)" width="60" height="19"><text text-decoration="none" x="0.5" fill="#ffffff" font-size="10pt" font-family="lt_regular"  y="15">ADDRESS</text><text text-decoration="none" x="59.5" fill="#4b4b4b" font-size="10pt" font-family="noto_regular"  y="15"></text></g></g><g id="uj58YFfzs06"><g><path d="M 1030,40 L 1070,100" fill="none" stroke="#A8A8A8" stroke-width="2" stroke-linecap="round" stroke-linejoin="round"/></g></g><g id="OMgrIChl8EO"><g><path d="M 1100,38 L 1085,69 L 1070,100" fill="none" stroke="#A8A8A8" stroke-width="2" stroke-linecap="round" stroke-linejoin="round"/></g></g><g id="MJL2Mxox0rP"><g><path d="M 1190,45 L 1070,100" fill="none" stroke="#A8A8A8" stroke-width="2" stroke-linecap="round" stroke-linejoin="round"/></g></g><g id="EuADhzEEENG"><g><path d="M 820,125 L 1020,125" fill="none" stroke="#A8A8A8" stroke-width="2" stroke-linecap="round" stroke-linejoin="round"/><path d="M 1020,119.25 L 1010,125 L 1020,130.75 M 1010,119.25 L 1010,130.75 Z" fill="none" stroke="#A8A8A8" stroke-width="2" stroke-linecap="round" stroke-linejoin="round"/></g></g><g id="naXAz3q2PuS"><g transform="translate(1019.9999999999999 390)"><rect x="0" y="0" width="100" height="50" fill="rgb(241,191,49)" stroke="#f1bf31" stroke-width="2" stroke-linecap="round" stroke-linejoin="round" stroke-dasharray="0 0"/></g><g transform="translate(1033.5, 405.5) rotate(0, 36.5, 9.5)" width="73" height="19"><text text-decoration="none" x="0" fill="#ffffff" font-size="10pt" font-family="lt_regular"  y="15">MANAGERS</text><text text-decoration="none" x="73" fill="#4b4b4b" font-size="10pt" font-family="noto_regular"  y="15"></text></g></g><g id="j2XNfhcXcGG"><g transform="translate(850 350)"><ellipse cx="50" cy="25" rx="50" ry="25" fill="rgb(56,128,189)" stroke="#3880bd" stroke-width="2" stroke-linecap="round" stroke-linejoin="round" stroke-dasharray="0 0"/></g><g transform="translate(879.5, 365.5) rotate(0, 20.5, 9.5)" width="41" height="19"><text text-decoration="underline" x="0.5" fill="#ffffff" font-size="10pt" font-family="lt_regular"  y="15">ID&#160;</text><text text-decoration="underline" x="17.5" fill="#ffffff" font-size="10pt" font-family="lt_regular"  y="15">NO.</text><text text-decoration="none" x="40.5" fill="#4b4b4b" font-size="10pt" font-family="noto_regular"  y="15"></text></g></g><g id="m5DeAPQshmt"><g transform="translate(840 410)"><ellipse cx="50" cy="25" rx="50" ry="25" fill="rgb(56,128,189)" stroke="#3880bd" stroke-width="2" stroke-linecap="round" stroke-linejoin="round" stroke-dasharray="0 0"/></g><g transform="translate(870.5, 425.5) rotate(0, 19.5, 9.5)" width="39" height="19"><text text-decoration="none" x="0" fill="#ffffff" font-size="10pt" font-family="lt_regular"  y="15">NAME</text><text text-decoration="none" x="39" fill="#4b4b4b" font-size="10pt" font-family="noto_regular"  y="15"></text></g></g><g id="qA9R3cuDwas"><g transform="translate(880 470)"><ellipse cx="50" cy="25" rx="50" ry="25" fill="rgb(56,128,189)" stroke="#3880bd" stroke-width="2" stroke-linecap="round" stroke-linejoin="round" stroke-dasharray="0 0"/></g><g transform="translate(899, 476.5) rotate(0, 31, 18.5)" width="62" height="37"><text text-decoration="none" x="0" fill="#ffffff" font-size="10pt" font-family="lt_regular"  y="14">CONTACT&#160;</text><text text-decoration="none" x="19.5" fill="#ffffff" font-size="10pt" font-family="lt_regular"  y="33">NO.</text><text text-decoration="none" x="42.5" fill="#4b4b4b" font-size="10pt" font-family="noto_regular"  y="33"></text></g></g><g id="T7cihphjYKC"><g><path d="M 970,480 L 1020,415" fill="none" stroke="#A8A8A8" stroke-width="2" stroke-linecap="round" stroke-linejoin="round"/></g></g><g id="EbgZn4LJads"><g><path d="M 940,435 L 1020,415" fill="none" stroke="#A8A8A8" stroke-width="2" stroke-linecap="round" stroke-linejoin="round"/></g></g><g id="t6eVxQzKWRE"><g><path d="M 950,375 L 1020,415" fill="none" stroke="#A8A8A8" stroke-width="2" stroke-linecap="round" stroke-linejoin="round"/></g></g><g id="gM6xE19TjeR"><g transform="translate(1010 220)"><path d="M 120,35 L 60,70 L 0,35 L 60,0 L 120,35 L 120,35 Z" fill="rgb(52,64,87)" stroke="#344057" stroke-width="2" stroke-linecap="round" stroke-linejoin="round" stroke-dasharray="0 0"/></g><g transform="translate(1057, 245.5) rotate(0, 13, 9.5)" width="26" height="19"><text text-decoration="none" x="0" fill="#ffffff" font-size="10pt" font-family="lt_regular"  y="15">HAS</text><text text-decoration="none" x="26" fill="#4b4b4b" font-size="10pt" font-family="noto_regular"  y="15"></text></g></g><g id="NFWxxAJri1M"><g><path d="M 1070,220 L 1070,150" fill="none" stroke="#A8A8A8" stroke-width="2" stroke-linecap="round" stroke-linejoin="round"/></g></g><g id="3FNMhLFnoGl"><g><path d="M 1070,290 L 1070,390" fill="none" stroke="#A8A8A8" stroke-width="2" stroke-linecap="round" stroke-linejoin="round"/><path d="M 1075.75,390 L 1070,380 L 1064.25,390 M 1075.75,380 L 1064.25,380 Z" fill="none" stroke="#A8A8A8" stroke-width="2" stroke-linecap="round" stroke-linejoin="round"/></g></g><g id="6bA44moEFKq"><g transform="translate(400.0000000000001 380)"><rect x="0" y="0" width="100" height="50" fill="rgb(241,191,49)" stroke="#f1bf31" stroke-width="2" stroke-linecap="round" stroke-linejoin="round" stroke-dasharray="0 0"/></g><g transform="translate(437.0000000000001, 395.5) rotate(0, 13, 9.5)" width="26" height="19"><text text-decoration="none" x="0" fill="#ffffff" font-size="10pt" font-family="lt_regular"  y="15">BILL</text><text text-decoration="none" x="26" fill="#4b4b4b" font-size="10pt" font-family="noto_regular"  y="15"></text></g></g><g id="dLwXgQGMMjv"><g transform="translate(390 230)"><path d="M 120,35 L 60,70 L 0,35 L 60,0 L 120,35 L 120,35 Z" fill="rgb(52,64,87)" stroke="#344057" stroke-width="2" stroke-linecap="round" stroke-linejoin="round" stroke-dasharray="0 0"/></g><g transform="translate(424.5, 255.5) rotate(0, 25.5, 9.5)" width="51" height="19"><text text-decoration="none" x="10" fill="#ffffff" font-size="10pt" font-family="lt_regular"  y="14">PAID&#160;</text><text text-decoration="none" x="16.5" fill="#ffffff" font-size="10pt" font-family="lt_regular"  y="33">TO</text><text text-decoration="none" x="34.5" fill="#4b4b4b" font-size="10pt" font-family="noto_regular"  y="33"></text></g></g><g id="omXfJQxdfJv"><g><path d="M 450,230 L 450,150" fill="none" stroke="#A8A8A8" stroke-width="2" stroke-linecap="round" stroke-linejoin="round"/><path d="M 444.25,150 L 450,160 L 455.75,150 M 444.25,160 L 455.75,160 Z" fill="none" stroke="#A8A8A8" stroke-width="2" stroke-linecap="round" stroke-linejoin="round"/></g></g><g id="HLFP2aq6V6f"><g><path d="M 450,300 L 450,380" fill="none" stroke="#A8A8A8" stroke-width="2" stroke-linecap="round" stroke-linejoin="round"/><path d="M 455.75,380 L 450,370 L 444.25,380 M 455.75,370 L 444.25,370 Z" fill="none" stroke="#A8A8A8" stroke-width="2" stroke-linecap="round" stroke-linejoin="round"/></g></g><g id="3eHUMTpYPm6"><g transform="translate(250 370)"><ellipse cx="50" cy="25" rx="50" ry="25" fill="rgb(56,128,189)" stroke="#3880bd" stroke-width="2" stroke-linecap="round" stroke-linejoin="round" stroke-dasharray="0 0"/></g><g transform="translate(277.5, 376.5) rotate(0, 22.5, 18.5)" width="45" height="37"><text text-decoration="none" x="0.5" fill="#ffffff" font-size="10pt" font-family="lt_regular"  y="14">ORDER&#160;</text><text text-decoration="none" x="0" fill="#ffffff" font-size="10pt" font-family="lt_regular"  y="33">DETAIL</text><text text-decoration="none" x="46" fill="#4b4b4b" font-size="10pt" font-family="noto_regular"  y="33"></text></g></g><g id="QRc0tcX2IBb"><g transform="translate(270 310)"><ellipse cx="50" cy="25" rx="50" ry="25" fill="rgb(56,128,189)" stroke="#3880bd" stroke-width="2" stroke-linecap="round" stroke-linejoin="round" stroke-dasharray="0 0"/></g><g transform="translate(293.5, 325.5) rotate(0, 26.5, 9.5)" width="53" height="19"><text text-decoration="underline" x="0.5" fill="#ffffff" font-size="10pt" font-family="lt_regular"  y="15">BILL&#160;</text><text text-decoration="underline" x="29.5" fill="#ffffff" font-size="10pt" font-family="lt_regular"  y="15">NO.</text><text text-decoration="none" x="52.5" fill="#4b4b4b" font-size="10pt" font-family="noto_regular"  y="15"></text></g></g><g id="kxa46anOsfn"><g><path d="M 360,350 L 400,405" fill="none" stroke="#A8A8A8" stroke-width="2" stroke-linecap="round" stroke-linejoin="round"/></g></g><g id="hUa0mnbKTWg"><g><path d="M 350,395 L 400,405" fill="none" stroke="#A8A8A8" stroke-width="2" stroke-linecap="round" stroke-linejoin="round"/></g></g><g id="AYn8bRJ1Qwm"><g transform="translate(400 650)"><rect x="0" y="0" width="100" height="50" fill="rgb(241,191,49)" stroke="#f1bf31" stroke-width="2" stroke-linecap="round" stroke-linejoin="round" stroke-dasharray="0 0"/></g><g transform="translate(414, 665.5) rotate(0, 36, 9.5)" width="72" height="19"><text text-decoration="none" x="0" fill="#ffffff" font-size="10pt" font-family="lt_regular"  y="15">CUSTOMER</text><text text-decoration="none" x="72" fill="#4b4b4b" font-size="10pt" font-family="noto_regular"  y="15"></text></g></g><g id="2agX4RMeQBX"><g transform="translate(390 520)"><path d="M 120,35 L 60,70 L 0,35 L 60,0 L 120,35 L 120,35 Z" fill="rgb(52,64,87)" stroke="#344057" stroke-width="2" stroke-linecap="round" stroke-linejoin="round" stroke-dasharray="0 0"/></g><g transform="translate(434.5, 545.5) rotate(0, 15.5, 9.5)" width="31" height="19"><text text-decoration="none" x="0" fill="#ffffff" font-size="10pt" font-family="lt_regular"  y="15">PAYS</text><text text-decoration="none" x="32" fill="#4b4b4b" font-size="10pt" font-family="noto_regular"  y="15"></text></g></g><g id="g1ixa3e1Rrh"><g><path d="M 450,520 L 450,430" fill="none" stroke="#A8A8A8" stroke-width="2" stroke-linecap="round" stroke-linejoin="round"/><path d="M 444.25,430 L 450,440 L 455.75,430 M 444.25,440 L 455.75,440 Z" fill="none" stroke="#A8A8A8" stroke-width="2" stroke-linecap="round" stroke-linejoin="round"/></g></g><g id="7NjGY6RRK5d"><g><path d="M 450,590 L 450,650" fill="none" stroke="#A8A8A8" stroke-width="2" stroke-linecap="round" stroke-linejoin="round"/><path d="M 455.75,650 L 450,640 L 444.25,650 M 455.75,640 L 444.25,640 Z" fill="none" stroke="#A8A8A8" stroke-width="2" stroke-linecap="round" stroke-linejoin="round"/></g></g><g id="lrsDUgEv4il"><g transform="translate(220 580)"><ellipse cx="50" cy="25" rx="50" ry="25" fill="rgb(56,128,189)" stroke="#3880bd" stroke-width="2" stroke-linecap="round" stroke-linejoin="round" stroke-dasharray="0 0"/></g><g transform="translate(234, 586.5) rotate(0, 36, 18.5)" width="72" height="37"><text text-decoration="underline" x="0" fill="#ffffff" font-size="10pt" font-family="lt_regular"  y="14">CUSTOMER&#160;</text><text text-decoration="underline" x="29" fill="#ffffff" font-size="10pt" font-family="lt_regular"  y="33">ID</text><text text-decoration="none" x="43" fill="#4b4b4b" font-size="10pt" font-family="noto_regular"  y="33"></text></g></g><g id="hWo2zEpYrcc"><g transform="translate(180 640)"><ellipse cx="50" cy="25" rx="50" ry="25" fill="rgb(56,128,189)" stroke="#3880bd" stroke-width="2" stroke-linecap="round" stroke-linejoin="round" stroke-dasharray="0 0"/></g><g transform="translate(199, 646.5) rotate(0, 31, 18.5)" width="62" height="37"><text text-decoration="none" x="0" fill="#ffffff" font-size="10pt" font-family="lt_regular"  y="14">CONTACT&#160;</text><text text-decoration="none" x="19.5" fill="#ffffff" font-size="10pt" font-family="lt_regular"  y="33">NO.</text><text text-decoration="none" x="42.5" fill="#4b4b4b" font-size="10pt" font-family="noto_regular"  y="33"></text></g></g><g id="vffJwqxbQV6"><g transform="translate(180 700)"><ellipse cx="50" cy="25" rx="50" ry="25" fill="rgb(56,128,189)" stroke="#3880bd" stroke-width="2" stroke-linecap="round" stroke-linejoin="round" stroke-dasharray="0 0"/></g><g transform="translate(200, 715.5) rotate(0, 30, 9.5)" width="60" height="19"><text text-decoration="none" x="0.5" fill="#ffffff" font-size="10pt" font-family="lt_regular"  y="15">ADDRESS</text><text text-decoration="none" x="59.5" fill="#4b4b4b" font-size="10pt" font-family="noto_regular"  y="15"></text></g></g><g id="b4UJFay4AJn"><g transform="translate(200 760)"><ellipse cx="50" cy="25" rx="50" ry="25" fill="rgb(56,128,189)" stroke="#3880bd" stroke-width="2" stroke-linecap="round" stroke-linejoin="round" stroke-dasharray="0 0"/></g><g transform="translate(230.5, 775.5) rotate(0, 19.5, 9.5)" width="39" height="19"><text text-decoration="none" x="0" fill="#ffffff" font-size="10pt" font-family="lt_regular"  y="15">NAME</text><text text-decoration="none" x="39" fill="#4b4b4b" font-size="10pt" font-family="noto_regular"  y="15"></text></g></g><g id="tKKh6Owrlco"><g><path d="M 310,620 L 355,648 L 400,675" fill="none" stroke="#A8A8A8" stroke-width="2" stroke-linecap="round" stroke-linejoin="round"/></g></g><g id="mju0fQsgc0T"><g><path d="M 280,665 L 340,670 L 400,675" fill="none" stroke="#A8A8A8" stroke-width="2" stroke-linecap="round" stroke-linejoin="round"/></g></g><g id="nZlZShLOXTv"><g><path d="M 280,725 L 340,700 L 400,675" fill="none" stroke="#A8A8A8" stroke-width="2" stroke-linecap="round" stroke-linejoin="round"/></g></g><g id="ABcU5hYQmX2"><g><path d="M 290,770 L 345,723 L 400,675" fill="none" stroke="#A8A8A8" stroke-width="2" stroke-linecap="round" stroke-linejoin="round"/></g></g><g id="eM2mKkeKVmE"><g transform="translate(1030 700)"><rect x="0" y="0" width="100" height="50" fill="rgb(241,191,49)" stroke="#f1bf31" stroke-width="2" stroke-linecap="round" stroke-linejoin="round" stroke-dasharray="0 0"/></g><g transform="translate(1057.5, 715.5) rotate(0, 22.5, 9.5)" width="45" height="19"><text text-decoration="none" x="0.5" fill="#ffffff" font-size="10pt" font-family="lt_regular"  y="15">ORDER</text><text text-decoration="none" x="44.5" fill="#4b4b4b" font-size="10pt" font-family="noto_regular"  y="15"></text></g></g><g id="zODesjMWh4a"><g transform="translate(860 570)"><ellipse cx="50" cy="25" rx="50" ry="25" fill="rgb(56,128,189)" stroke="#3880bd" stroke-width="2" stroke-linecap="round" stroke-linejoin="round" stroke-dasharray="0 0"/></g><g transform="translate(875.5, 585.5) rotate(0, 34.5, 9.5)" width="69" height="19"><text text-decoration="underline" x="1" fill="#ffffff" font-size="10pt" font-family="lt_regular"  y="15">ORDER&#160;</text><text text-decoration="underline" x="48" fill="#ffffff" font-size="10pt" font-family="lt_regular"  y="15">NO</text><text text-decoration="none" x="68" fill="#4b4b4b" font-size="10pt" font-family="noto_regular"  y="15"></text></g></g><g id="lhtCsJVxnMW"><g transform="translate(800 620)"><ellipse cx="50" cy="25" rx="50" ry="25" fill="rgb(56,128,189)" stroke="#3880bd" stroke-width="2" stroke-linecap="round" stroke-linejoin="round" stroke-dasharray="0 0"/></g><g transform="translate(810, 635.5) rotate(0, 40, 9.5)" width="80" height="19"><text text-decoration="none" x="1" fill="#ffffff" font-size="10pt" font-family="lt_regular"  y="15">NO.&#160;</text><text text-decoration="none" x="27" fill="#ffffff" font-size="10pt" font-family="lt_regular"  y="15">OF&#160;</text><text text-decoration="none" x="47" fill="#ffffff" font-size="10pt" font-family="lt_regular"  y="15">ITEM</text><text text-decoration="none" x="79" fill="#4b4b4b" font-size="10pt" font-family="noto_regular"  y="15"></text></g></g><g id="Dnz2fPWiwQM"><g><path d="M 950,610 L 1080,700" fill="none" stroke="#A8A8A8" stroke-width="2" stroke-linecap="round" stroke-linejoin="round"/></g></g><g id="ITXEJ3hdvjQ"><g><path d="M 900,645 L 1080,700" fill="none" stroke="#A8A8A8" stroke-width="2" stroke-linecap="round" stroke-linejoin="round"/></g></g><g id="9nCB1NBx4NZ"><g transform="translate(1040 520)"><path d="M 120,35 L 60,70 L 0,35 L 60,0 L 120,35 L 120,35 Z" fill="rgb(52,64,87)" stroke="#344057" stroke-width="2" stroke-linecap="round" stroke-linejoin="round" stroke-dasharray="0 0"/></g><g transform="translate(1080, 545.5) rotate(0, 20, 9.5)" width="40" height="19"><text text-decoration="none" x="0" fill="#ffffff" font-size="10pt" font-family="lt_regular"  y="15">TAKES</text><text text-decoration="none" x="41" fill="#4b4b4b" font-size="10pt" font-family="noto_regular"  y="15"></text></g></g><g id="hCMg0uuCXNu"><g><path d="M 1100,520 L 1070,440" fill="none" stroke="#A8A8A8" stroke-width="2" stroke-linecap="round" stroke-linejoin="round"/><path d="M 1064.616107228978,442.01895978913325 L 1073.511234415884,449.36329177569047 L 1075.383892771022,437.98104021086675 M 1068.1273416448619,451.3822515648237 L 1078.895127186906,447.34433198655717 Z" fill="none" stroke="#A8A8A8" stroke-width="2" stroke-linecap="round" stroke-linejoin="round"/></g></g><g id="jlfpgFdo8Sl"><g><path d="M 1100,590 L 1080,700" fill="none" stroke="#A8A8A8" stroke-width="2" stroke-linecap="round" stroke-linejoin="round"/><path d="M 1085.6572519830745,701.02859126965 L 1081.7888543819997,690.1613008990009 L 1074.3427480169255,698.97140873035 M 1087.4461063650742,691.1898921686509 L 1076.1316023989255,689.132709629351 Z" fill="none" stroke="#A8A8A8" stroke-width="2" stroke-linecap="round" stroke-linejoin="round"/></g></g><g id="48X7efPmB7g"><g transform="translate(670 680)"><path d="M 120,35 L 60,70 L 0,35 L 60,0 L 120,35 L 120,35 Z" fill="rgb(52,64,87)" stroke="#344057" stroke-width="2" stroke-linecap="round" stroke-linejoin="round" stroke-dasharray="0 0"/></g><g transform="translate(706.5, 705.5) rotate(0, 23.5, 9.5)" width="47" height="19"><text text-decoration="none" x="0" fill="#ffffff" font-size="10pt" font-family="lt_regular"  y="15">PLACES</text><text text-decoration="none" x="48" fill="#4b4b4b" font-size="10pt" font-family="noto_regular"  y="15"></text></g></g><g id="r5fOLX3H2dJ"><g><path d="M 670,715 L 500,675" fill="none" stroke="#A8A8A8" stroke-width="2" stroke-linecap="round" stroke-linejoin="round"/><path d="M 498.6830238310781,680.5971487179181 L 509.7341716833358,677.2903933372555 L 501.3169761689219,669.4028512820819 M 508.4171955144139,682.8875420551735 L 511.05114785225766,671.6932446193374 Z" fill="none" stroke="#A8A8A8" stroke-width="2" stroke-linecap="round" stroke-linejoin="round"/></g></g><g id="iRRvJ7C2TJG"><g><path d="M 790,715 L 1030,725" fill="none" stroke="#A8A8A8" stroke-width="2" stroke-linecap="round" stroke-linejoin="round"/><path d="M 1030.239375632095,719.254984829719 L 1020.0086692690764,724.5836945528782 L 1029.760624367905,730.745015170281 M 1020.2480449011715,718.8386793825972 L 1019.7692936369814,730.3287097231592 Z" fill="none" stroke="#A8A8A8" stroke-width="2" stroke-linecap="round" stroke-linejoin="round"/></g></g><g id="hNiuSANvElW"><g transform="translate(1370 530)"><rect x="0" y="0" width="100" height="50" fill="rgb(241,191,49)" stroke="#f1bf31" stroke-width="2" stroke-linecap="round" stroke-linejoin="round" stroke-dasharray="0 0"/></g><g transform="translate(1399, 545.5) rotate(0, 21, 9.5)" width="42" height="19"><text text-decoration="none" x="0.5" fill="#ffffff" font-size="10pt" font-family="lt_regular"  y="15">CHEFF</text><text text-decoration="none" x="41.5" fill="#4b4b4b" font-size="10pt" font-family="noto_regular"  y="15"></text></g></g><g id="5XK86oSddQA"><g transform="translate(1530 500)"><ellipse cx="50" cy="25" rx="50" ry="25" fill="rgb(56,128,189)" stroke="#3880bd" stroke-width="2" stroke-linecap="round" stroke-linejoin="round" stroke-dasharray="0 0"/></g><g transform="translate(1560.5, 515.5) rotate(0, 19.5, 9.5)" width="39" height="19"><text text-decoration="none" x="0" fill="rgb(97, 114, 130)" font-size="10pt" font-family="lt_regular"  y="15">NAME</text><text text-decoration="none" x="39" fill="#4b4b4b" font-size="10pt" font-family="noto_regular"  y="15"></text></g></g><g id="nZ0R96y50gM"><g transform="translate(1570 570)"><ellipse cx="50" cy="25" rx="50" ry="25" fill="rgb(56,128,189)" stroke="#3880bd" stroke-width="2" stroke-linecap="round" stroke-linejoin="round" stroke-dasharray="0 0"/></g><g transform="translate(1599.5, 585.5) rotate(0, 20.5, 9.5)" width="41" height="19"><text text-decoration="underline" x="0.5" fill="rgb(97, 114, 130)" font-size="10pt" font-family="lt_regular"  y="15">ID&#160;</text><text text-decoration="underline" x="17.5" fill="rgb(97, 114, 130)" font-size="10pt" font-family="lt_regular"  y="15">NO.</text><text text-decoration="none" x="40.5" fill="#4b4b4b" font-size="10pt" font-family="noto_regular"  y="15"></text></g></g><g id="F5HaMrFoYJ6"><g><path d="M 1530,525 L 1500,540 L 1470,555" fill="none" stroke="#A8A8A8" stroke-width="2" stroke-linecap="round" stroke-linejoin="round"/></g></g><g id="dbBINEs1a7O"><g><path d="M 1570,595 L 1520,575 L 1470,555" fill="none" stroke="#A8A8A8" stroke-width="2" stroke-linecap="round" stroke-linejoin="round"/></g></g><g id="uevfWuYAc5m"><g transform="translate(1250 430)"><path d="M 120,35 L 60,70 L 0,35 L 60,0 L 120,35 L 120,35 Z" fill="rgb(52,64,87)" stroke="#344057" stroke-width="2" stroke-linecap="round" stroke-linejoin="round" stroke-dasharray="0 0"/></g><g transform="translate(1292, 455.5) rotate(0, 18, 9.5)" width="36" height="19"><text text-decoration="none" x="0" fill="#ffffff" font-size="10pt" font-family="lt_regular"  y="15">TELLS</text><text text-decoration="none" x="37" fill="#4b4b4b" font-size="10pt" font-family="noto_regular"  y="15"></text></g></g><g id="GAIZ3IhzztJ"><g><path d="M 1250,465 L 1120,415" fill="none" stroke="#A8A8A8" stroke-width="2" stroke-linecap="round" stroke-linejoin="round"/><path d="M 1117.935870293974,420.3667372356676 L 1129.3334560620306,418.5897907930887 L 1122.064129706026,409.6332627643324 M 1127.2693263560045,423.9565280287563 L 1131.3975857680566,413.2230535574211 Z" fill="none" stroke="#A8A8A8" stroke-width="2" stroke-linecap="round" stroke-linejoin="round"/></g></g><g id="3IY8OLF9vpc"><g><path d="M 1370,465 L 1420,530" fill="none" stroke="#A8A8A8" stroke-width="2" stroke-linecap="round" stroke-linejoin="round"/><path d="M 1424.5575879373514,526.4941631251143 L 1413.902892391503,522.073760108954 L 1415.4424120626486,533.5058368748857 M 1418.4604803288546,518.5679232340683 L 1409.3453044541516,525.5795969838397 Z" fill="none" stroke="#A8A8A8" stroke-width="2" stroke-linecap="round" stroke-linejoin="round"/></g></g><g id="jB34Z48oHSj"><g transform="translate(1260 660)"><path d="M 120,35 L 60,70 L 0,35 L 60,0 L 120,35 L 120,35 Z" fill="rgb(52,64,87)" stroke="#344057" stroke-width="2" stroke-linecap="round" stroke-linejoin="round" stroke-dasharray="0 0"/></g><g transform="translate(1292, 685.5) rotate(0, 28, 9.5)" width="56" height="19"><text text-decoration="none" x="0" fill="#ffffff" font-size="10pt" font-family="lt_regular"  y="15">PREPARE</text><text text-decoration="none" x="57" fill="#4b4b4b" font-size="10pt" font-family="noto_regular"  y="15"></text></g></g><g id="mIQNZrp8Q9f"><g><path d="M 1380,695 L 1420,580" fill="none" stroke="#A8A8A8" stroke-width="2" stroke-linecap="round" stroke-linejoin="round"/><path d="M 1414.5691434189396,578.1110064065876 L 1416.7147937505872,589.4449679670616 L 1425.4308565810604,581.8889935934124 M 1411.2839371695268,587.5559743736493 L 1422.1456503316476,591.3339615604739 Z" fill="none" stroke="#A8A8A8" stroke-width="2" stroke-linecap="round" stroke-linejoin="round"/></g></g><g id="QJNiFo4rsu6"><g><path d="M 1260,695 L 1130,725" fill="none" stroke="#A8A8A8" stroke-width="2" stroke-linecap="round" stroke-linejoin="round"/><path d="M 1131.2929421635179,730.6027493752441 L 1139.7439119569462,722.7514049330124 L 1128.7070578364821,719.3972506247559 M 1141.036854120464,728.3541543082565 L 1138.4509697934284,717.1486555577684 Z" fill="none" stroke="#A8A8A8" stroke-width="2" stroke-linecap="round" stroke-linejoin="round"/></g></g><g id="P4vFiJH0vay"><g transform="translate(1030 930)"><path d="M 0,0 L 100,0 L 100,50 L 0,50 L 0,0 Z M 5,5 L 95,5 L 95,45 L 5,45 L 5,5 Z" fill="rgb(241,191,49)" stroke="#f1bf31" stroke-width="2" stroke-linecap="round" stroke-linejoin="round" stroke-dasharray="0 0"/></g><g transform="translate(1064, 945.5) rotate(0, 16, 9.5)" width="32" height="19"><text text-decoration="none" x="0" fill="#ffffff" font-size="10pt" font-family="lt_regular"  y="15">ITEM</text><text text-decoration="none" x="32" fill="#4b4b4b" font-size="10pt" font-family="noto_regular"  y="15"></text></g></g><g id="DdohyIeqxV4"><g transform="translate(1280 980)"><ellipse cx="50" cy="25" rx="50" ry="25" fill="rgb(56,128,189)" stroke="#3880bd" stroke-width="2" stroke-linecap="round" stroke-linejoin="round" stroke-dasharray="0 0"/></g><g transform="translate(1300.5, 995.5) rotate(0, 29.5, 9.5)" width="59" height="19"><text text-decoration="underline" x="0.5" fill="#ffffff" font-size="10pt" font-family="lt_regular"  y="15">ITEM&#160;</text><text text-decoration="underline" x="35.5" fill="#ffffff" font-size="10pt" font-family="lt_regular"  y="15">NO.</text><text text-decoration="none" x="58.5" fill="#4b4b4b" font-size="10pt" font-family="noto_regular"  y="15"></text></g></g><g id="kQXBc3uVfdI"><g transform="translate(1200 1020)"><ellipse cx="50" cy="25" rx="50" ry="25" fill="rgb(56,128,189)" stroke="#3880bd" stroke-width="2" stroke-linecap="round" stroke-linejoin="round" stroke-dasharray="0 0"/></g><g transform="translate(1207, 1035.5) rotate(0, 43, 9.5)" width="86" height="19"><text text-decoration="none" x="0" fill="#ffffff" font-size="10pt" font-family="lt_regular"  y="15">DESCRIPTION</text><text text-decoration="none" x="86" fill="#4b4b4b" font-size="10pt" font-family="noto_regular"  y="15"></text></g></g><g id="vRtz1KwkNn6"><g transform="translate(1080 1040)"><ellipse cx="50" cy="25" rx="50" ry="25" fill="rgb(56,128,189)" stroke="#3880bd" stroke-width="2" stroke-linecap="round" stroke-linejoin="round" stroke-dasharray="0 0"/></g><g transform="translate(1111.5, 1055.5) rotate(0, 18.5, 9.5)" width="37" height="19"><text text-decoration="none" x="0" fill="#ffffff" font-size="10pt" font-family="lt_regular"  y="15">PRICE</text><text text-decoration="none" x="37" fill="#4b4b4b" font-size="10pt" font-family="noto_regular"  y="15"></text></g></g><g id="B1wzfyikmrG"><g transform="translate(970 1040)"><ellipse cx="50" cy="25" rx="50" ry="25" fill="rgb(56,128,189)" stroke="#3880bd" stroke-width="2" stroke-linecap="round" stroke-linejoin="round" stroke-dasharray="0 0"/></g><g transform="translate(986.5, 1055.5) rotate(0, 33.5, 9.5)" width="67" height="19"><text text-decoration="none" x="0" fill="#ffffff" font-size="10pt" font-family="lt_regular"  y="15">QUANTITY</text><text text-decoration="none" x="67" fill="#4b4b4b" font-size="10pt" font-family="noto_regular"  y="15"></text></g></g><g id="Kn7CA1wA174"><g><path d="M 1280,1005 L 1080,980" fill="none" stroke="#7E7E7E" stroke-width="2" stroke-linecap="round" stroke-linejoin="round"/></g></g><g id="6fc9YzoHyEf"><g><path d="M 1200,1045 L 1080,980" fill="none" stroke="#7E7E7E" stroke-width="2" stroke-linecap="round" stroke-linejoin="round"/></g></g><g id="ZTIYNbdkcyP"><g><path d="M 1110,1042 L 1080,980" fill="none" stroke="#7E7E7E" stroke-width="2" stroke-linecap="round" stroke-linejoin="round"/></g></g><g id="fQD5bRneaXl"><g><path d="M 1060,1050 L 1080,980" fill="none" stroke="#7E7E7E" stroke-width="2" stroke-linecap="round" stroke-linejoin="round"/></g></g><g id="tfn9KU8Fefl"><g transform="translate(1020 790)"><path d="M 120,35 L 60,70 L 0,35 L 60,0 L 120,35 L 120,35 Z" fill="rgb(52,64,87)" stroke="#344057" stroke-width="2" stroke-linecap="round" stroke-linejoin="round" stroke-dasharray="0 0"/></g><g transform="translate(1046.5, 815.5) rotate(0, 33.5, 9.5)" width="67" height="19"><text text-decoration="none" x="0" fill="#ffffff" font-size="10pt" font-family="lt_regular"  y="15">CONTAINS</text><text text-decoration="none" x="67" fill="#4b4b4b" font-size="10pt" font-family="noto_regular"  y="15"></text></g></g><g id="0qr9mpOcxqM"><g><path d="M 1080,790 L 1080,750" fill="none" stroke="#A8A8A8" stroke-width="2" stroke-linecap="round" stroke-linejoin="round"/><path d="M 1074.25,750 L 1080,760 L 1085.75,750 M 1074.25,760 L 1085.75,760 Z" fill="none" stroke="#A8A8A8" stroke-width="2" stroke-linecap="round" stroke-linejoin="round"/></g></g><g id="kdnd5eIxHRp"><g><path d="M 1080,930 L 1080,860" fill="none" stroke="#7E7E7E" stroke-width="2" stroke-linecap="round" stroke-linejoin="round"/><path d="M 1080,930 L 1086.497175141243,923.9178655404372 M 1080,930 L 1073.502824858757,923.9178655404372 M 1080,924.7826994313142 L 1086.497175141243,918.7005649717514 M 1080,924.7826994313142 L 1073.502824858757,918.7005649717514 Z" fill="none" stroke="#7E7E7E" stroke-width="2" stroke-linecap="round" stroke-linejoin="round"/></g></g><g id="148RM6mhzgW"><g transform="translate(450 920)"><rect x="0" y="0" width="100" height="50" fill="rgb(241,191,49)" stroke="#f1bf31" stroke-width="2" stroke-linecap="round" stroke-linejoin="round" stroke-dasharray="0 0"/></g><g transform="translate(475, 935.5) rotate(0, 25, 9.5)" width="50" height="19"><text text-decoration="none" x="0" fill="#ffffff" font-size="10pt" font-family="lt_regular"  y="15">WAITER</text><text text-decoration="none" x="50" fill="#4b4b4b" font-size="10pt" font-family="noto_regular"  y="15"></text></g></g><g id="SzCGNlMJE7c"><g transform="translate(510 1040)"><ellipse cx="50" cy="25" rx="50" ry="25" fill="rgb(56,128,189)" stroke="#3880bd" stroke-width="2" stroke-linecap="round" stroke-linejoin="round" stroke-dasharray="0 0"/></g><g transform="translate(541, 1055.5) rotate(0, 19, 9.5)" width="38" height="19"><text text-decoration="underline" x="0.5" fill="#ffffff" font-size="10pt" font-family="lt_regular"  y="15">ID&#160;</text><text text-decoration="underline" x="17.5" fill="#ffffff" font-size="10pt" font-family="lt_regular"  y="15">NO</text><text text-decoration="none" x="37.5" fill="#4b4b4b" font-size="10pt" font-family="noto_regular"  y="15"></text></g></g><g id="mCgnZPpzqkC"><g transform="translate(380 1030)"><ellipse cx="50" cy="25" rx="50" ry="25" fill="rgb(56,128,189)" stroke="#3880bd" stroke-width="2" stroke-linecap="round" stroke-linejoin="round" stroke-dasharray="0 0"/></g><g transform="translate(410.5, 1045.5) rotate(0, 19.5, 9.5)" width="39" height="19"><text text-decoration="none" x="0" fill="#ffffff" font-size="10pt" font-family="lt_regular"  y="15">NAME</text><text text-decoration="none" x="39" fill="#4b4b4b" font-size="10pt" font-family="noto_regular"  y="15"></text></g></g><g id="U0J4rAzF3oK"><g><path d="M 540,1042 L 520,1006 L 500,970" fill="none" stroke="#A8A8A8" stroke-width="2" stroke-linecap="round" stroke-linejoin="round"/></g></g><g id="r4kaB6y3VLL"><g><path d="M 470,1040 L 500,970" fill="none" stroke="#A8A8A8" stroke-width="2" stroke-linecap="round" stroke-linejoin="round"/></g></g><g id="ZL6pZdAlvTf"><g transform="translate(380 760)"><path d="M 120,35 L 60,70 L 0,35 L 60,0 L 120,35 L 120,35 Z" fill="rgb(52,64,87)" stroke="#344057" stroke-width="2" stroke-linecap="round" stroke-linejoin="round" stroke-dasharray="0 0"/></g><g transform="translate(399, 785.5) rotate(0, 41, 9.5)" width="82" height="19"><text text-decoration="none" x="0" fill="#ffffff" font-size="10pt" font-family="lt_regular"  y="15">DELIVERS&#160;</text><text text-decoration="none" x="64" fill="#ffffff" font-size="10pt" font-family="lt_regular"  y="15">TO</text><text text-decoration="none" x="82" fill="#4b4b4b" font-size="10pt" font-family="noto_regular"  y="15"></text></g></g><g id="Wa0YdWbmQLi"><g><path d="M 440,760 L 450,700" fill="none" stroke="#A8A8A8" stroke-width="2" stroke-linecap="round" stroke-linejoin="round"/><path d="M 444.3282349379652,699.0547058229942 L 448.35601012694644,709.8639392383214 L 455.6717650620348,700.9452941770058 M 442.6842450649116,708.9186450613156 L 454.02777518898125,710.8092334153273 Z" fill="none" stroke="#A8A8A8" stroke-width="2" stroke-linecap="round" stroke-linejoin="round"/></g></g><g id="wdDa2CgIpe8"><g><path d="M 440,830 L 500,920" fill="none" stroke="#A8A8A8" stroke-width="2" stroke-linecap="round" stroke-linejoin="round"/><path d="M 504.7842891924426,916.810473871705 L 494.4529980377477,911.6794970566216 L 500,920 M 494.4529980377477,911.6794970566216 L 495.2157108075574,923.189526128295" fill="none" stroke="#A8A8A8" stroke-width="2" stroke-linecap="round" stroke-linejoin="round"/><circle cx="491.6794970566216" cy="907.5192455849324" r="5.75" fill="rgb(255,255,255)" stroke="#A8A8A8" stroke-width="2" stroke-linecap="round" stroke-linejoin="round"/><path d="Z" fill="none" stroke="#A8A8A8" stroke-width="2" stroke-linecap="round" stroke-linejoin="round"/></g></g><g id="8mIcBNqlrYD"><g transform="translate(730 820)"><path d="M 120,35 L 60,70 L 0,35 L 60,0 L 120,35 L 120,35 Z" fill="rgb(52,64,87)" stroke="#344057" stroke-width="2" stroke-linecap="round" stroke-linejoin="round" stroke-dasharray="0 0"/></g><g transform="translate(758.5, 845.5) rotate(0, 31.5, 9.5)" width="63" height="19"><text text-decoration="none" x="0" fill="#ffffff" font-size="10pt" font-family="lt_regular"  y="15">TAKEN&#160;</text><text text-decoration="none" x="47" fill="#ffffff" font-size="10pt" font-family="lt_regular"  y="15">BY</text><text text-decoration="none" x="63" fill="#4b4b4b" font-size="10pt" font-family="noto_regular"  y="15"></text></g></g><g id="OMDffoIxLuF"><g><path d="M 850,855 L 1030,725" fill="none" stroke="#A8A8A8" stroke-width="2" stroke-linecap="round" stroke-linejoin="round"/><path d="M 1026.633429315395,720.3385944367006 L 1021.8932077160011,730.8549055384436 L 1033.366570684605,729.6614055632994 M 1018.5266370313961,726.1934999751443 L 1025.2597784006064,735.5163111017429 Z" fill="none" stroke="#A8A8A8" stroke-width="2" stroke-linecap="round" stroke-linejoin="round"/></g></g><g id="PbXaqMwoupW"><g><path d="M 730,855 L 550,945" fill="none" stroke="#A8A8A8" stroke-width="2" stroke-linecap="round" stroke-linejoin="round"/><path d="M 552.5714781741248,950.1429563482495 L 558.9442719099992,940.5278640450005 L 547.4285218258752,939.8570436517505 M 561.515750084124,945.67082039325 L 556.3727937358744,935.3849076967509 Z" fill="none" stroke="#A8A8A8" stroke-width="2" stroke-linecap="round" stroke-linejoin="round"/></g></g></svg>